<svg width="32" height="32" viewBox="0 0 32 32" fill="none" xmlns="http://www.w3.org/2000/svg">
<g id="Frame">
<path id="Vector" d="M15.5 29C22.4036 29 28 23.4036 28 16.5C28 9.59644 22.4036 4 15.5 4C8.59644 4 3 9.59644 3 16.5C3 23.4036 8.59644 29 15.5 29Z" fill="white"/>
<path id="Vector_2" d="M16 30.252C23.7246 30.252 30.123 23.8672 30.123 16.1289C30.123 8.4043 23.7246 2.00586 15.9863 2.00586C8.26172 2.00586 1.87695 8.4043 1.87695 16.1289C1.87695 23.8672 8.27539 30.252 16 30.252ZM16 27.4766C9.71094 27.4766 4.66602 22.418 4.66602 16.1289C4.66602 9.83984 9.69727 4.79492 15.9863 4.79492C22.2754 4.79492 27.334 9.83984 27.3477 16.1289C27.3477 22.418 22.2891 27.4766 16 27.4766Z" fill="#DDDDDD"/>
</g>
</svg>
