<svg width="32" height="32" viewBox="0 0 32 32" fill="none" xmlns="http://www.w3.org/2000/svg">
<g id="Frame">
<path id="Vector" d="M16 30.252C23.7246 30.252 30.123 23.8672 30.123 16.1289C30.123 8.4043 23.7246 2.00586 15.9863 2.00586C8.26172 2.00586 1.87695 8.4043 1.87695 16.1289C1.87695 23.8672 8.27539 30.252 16 30.252ZM14.4824 22.8828C13.9629 22.8828 13.5391 22.6504 13.1562 22.1582L9.80664 18.084C9.56055 17.7832 9.4375 17.4551 9.4375 17.1133C9.4375 16.416 9.98438 15.8418 10.6953 15.8418C11.1191 15.8418 11.4473 16.0059 11.7891 16.4434L14.4277 19.793L20.0879 10.7422C20.375 10.2637 20.7578 10.0312 21.1953 10.0312C21.8789 10.0312 22.4941 10.5098 22.4941 11.2207C22.4941 11.5352 22.3301 11.877 22.1387 12.1777L15.7402 22.1582C15.4258 22.623 14.9883 22.8828 14.4824 22.8828Z" fill="#DDDDDD"/>
</g>
</svg>
